# xmcd
#
# Track frame offsets:
#	150
#	18352
#	37530
#	51272
#	73957
#	95707
#	120545
#	141770
#	159580
#	181895
#	201215
#	223855
#	243627
#	265160
#	289012
#	309932
#
# Disc length: 4387 seconds
#
# Revision: 1
# Processed by: cddbd v1.5PL3 Copyright (c) Steve Scherf et al.
# Submitted via: CDex 1.50Beta5
#
DISCID=e9112110
DTITLE=チェッカーズ - Ballad Selection〜The Selection of THE CHECKERS
DYEAR=1999
DGENRE=Pop
TTITLE0=渚のdance hall
TTITLE1=ひとりぼっちのナタリー
TTITLE2=ムーンライト・レビュー50’s
TTITLE3=チェッカーズのX’mas Song
TTITLE4=Lonely Soldier
TTITLE5=ティーンネイジ・ドリーマー
TTITLE6=Marry Me Tomorrow
TTITLE7=哀しみのバージン・ロード
TTITLE8=ひとりじゃいられない
TTITLE9=CLOSE YOUR EYES
TTITLE10=One Night Angel
TTITLE11=Long Road
TTITLE12=時のK-City
TTITLE13=愛と哀しみのラストショー
TTITLE14=悲しみよ腕の中へ
TTITLE15=MY GRADUATION
EXTD=
EXTT0=
EXTT1=
EXTT2=
EXTT3=
EXTT4=
EXTT5=
EXTT6=
EXTT7=
EXTT8=
EXTT9=
EXTT10=
EXTT11=
EXTT12=
EXTT13=
EXTT14=
EXTT15=
PLAYORDER=
